#!OML:ASF E:\Steps\Project 1\Capture day 1\Session 2\Subject.ASF
:FULLY-SPECIFIED
:DEGREES
524
root 8.67857 18.3518 -1.87794 -153.675 1.1188 178.897
lowerback -20.2636 -2.67754 -9.29302
upperback 1.11119 -0.83618 -1.55618
thorax 12.8685 -0.848539 3.3009
lowerneck -1.09184 -2.43429 -2.69181
upperneck 19.3226 -2.84791 6.40485
head 6.14269 -0.582679 2.38789
rclavicle -5.1684e-015 -1.43125e-014
rhumerus -38.3117 -12.8114 -78.7338
rradius 38.0958
rwrist -6.91709
rhand -9.30212 -47.8632
rfingers 7.12502
rthumb 16.6556 -77.1686
lclavicle -5.1684e-015 -1.43125e-014
lhumerus -28.2381 1.78812 78.492
lradius 30.144
lwrist -0.0658212
lhand -19.8399 -13.1963
lfingers 7.12502
lthumb 6.49437 16.6842
rfemur -61.8563 -0.989846 19.3141
rtibia 87.7319
rfoot -16.65 -8.68847
rtoes -34.3992
lfemur -38.6487 -7.8109 -21.5645
ltibia 25.2307
lfoot -9.83785 1.0525
ltoes -16.6971
525
root 8.66509 18.3718 -1.92665 -153.879 1.2598 179.001
lowerback -20.1267 -2.74295 -9.22255
upperback 1.1609 -0.983253 -1.43701
thorax 12.866 -0.924383 3.34946
lowerneck -1.28312 -2.47548 -3.07859
upperneck 19.5247 -2.919 6.62104
head 6.25156 -0.622066 2.52032
rclavicle 4.37326e-015 -3.26007e-014
rhumerus -38.2024 -12.8669 -78.5014
rradius 37.6508
rwrist -6.71437
rhand -9.25829 -48.6243
rfingers 7.12502
rthumb 16.6978 -77.9261
lclavicle 4.37326e-015 -3.26007e-014
lhumerus -28.2081 2.27126 78.4206
lradius 30.1512
lwrist -0.205479
lhand -19.712 -13.5443
lfingers 7.12502
lthumb 6.61787 16.3323
rfemur -63.1787 -0.768293 19.4165
rtibia 88.5921
rfoot -16.9346 -8.74087
rtoes -35.2091
lfemur -37.8582 -7.87161 -21.5358
ltibia 24.5548
lfoot -9.8906 1.27234
ltoes -16.748
526
root 8.6526 18.3916 -1.97617 -154.056 1.40757 179.07
lowerback -20.1311 -2.73598 -9.14155
upperback 1.27705 -1.0059 -1.38321
thorax 13.0052 -0.945802 3.35361
lowerneck -0.926072 -2.24272 -2.95096
upperneck 18.9118 -2.59885 6.38045
head 5.97448 -0.511594 2.43161
rclavicle 1.27222e-014 5.64548e-014
rhumerus -38.2445 -13.2165 -78.2274
rradius 37.503
rwrist -6.5592
rhand -9.40244 -49.018
rfingers 7.12502
rthumb 16.559 -78.3315
lclavicle 1.27222e-014 5.64548e-014
lhumerus -28.0138 2.25366 78.474
lradius 30.1445
lwrist -0.105658
lhand -19.9175 -13.7223
lfingers 7.12502
lthumb 6.41943 16.1604
rfemur -64.538 -0.590368 19.5231
rtibia 89.81
rfoot -17.7467 -8.86981
rtoes -35.8306
lfemur -37.1405 -7.95853 -21.5474
ltibia 23.9697
lfoot -9.85539 1.50525
ltoes -17.0437
527
root 8.64198 18.4094 -2.02241 -154.222 1.43221 179.196
lowerback -20.1455 -2.68219 -8.93379
upperback 1.3766 -0.98894 -1.3752
thorax 13.121 -0.935336 3.24734
lowerneck -0.971251 -2.27615 -2.71018
upperneck 18.9974 -2.63064 6.21489
head 6.00636 -0.517467 2.33726
rclavicle -1.98785e-014 -7.39479e-014
rhumerus -38.4616 -13.7262 -77.9852
rradius 37.4418
rwrist -6.3739
rhand -9.64634 -48.5272
rfingers 7.12502
rthumb 16.3242 -77.8602
lclavicle -1.98785e-014 -7.39479e-014
lhumerus -27.9123 1.84992 78.5374
lradius 30.3025
lwrist 0.121434
lhand -20.2136 -13.5714
lfingers 7.12502
lthumb 6.13356 16.3198
rfemur -65.8491 -0.349651 19.6956
rtibia 90.8213
rfoot -18.5947 -9.07008
rtoes -36.4232
lfemur -36.4705 -8.02869 -21.4727
ltibia 23.4243
lfoot -9.74808 1.74545
ltoes -17.7234
528
root 8.63224 18.425 -2.0671 -154.378 1.38941 179.283
lowerback -20.0949 -2.69092 -8.7973
upperback 1.42308 -1.04818 -1.34487
thorax 13.1495 -0.959751 3.18498
lowerneck -0.83111 -2.29407 -2.40334
upperneck 18.9397 -2.63061 5.95413
head 5.95758 -0.517209 2.20221
rclavicle -1.55052e-014 -3.65764e-014
rhumerus -38.7239 -14.0456 -77.7819
rradius 37.3175
rwrist -6.26565
rhand -9.99481 -47.7988
rfingers 7.12502
rthumb 15.9886 -77.159
lclavicle -1.55052e-014 -3.65764e-014
lhumerus -27.9321 1.73609 78.518
lradius 30.469
lwrist 0.150182
lhand -20.1747 -13.3779
lfingers 7.12502
lthumb 6.17119 16.5122
rfemur -66.6873 -0.388759 19.8474
rtibia 90.6963
rfoot -19.0726 -8.9897
rtoes -36.5907
lfemur -35.8397 -8.07459 -21.4496
ltibia 22.9337
lfoot -9.73511 1.84581
ltoes -18.0425
529
root 8.62381 18.4421 -2.10934 -154.551 1.37565 179.277
lowerback -19.8078 -2.77217 -8.82517
upperback 1.42597 -1.19774 -1.27497
thorax 13.0073 -1.03198 3.23733
lowerneck -0.64219 -2.29126 -2.29742
upperneck 18.7115 -2.61548 5.75751
head 5.84914 -0.531091 2.12025
rclavicle -2.34566e-014 3.18055e-015
rhumerus -38.9545 -14.1193 -77.5887
rradius 37.176
rwrist -6.20754
rhand -10.4289 -47.758
rfingers 7.12502
rthumb 15.5706 -77.1512
lclavicle -2.34566e-014 3.18055e-015
lhumerus -27.9622 1.99282 78.4695
lradius 30.5248
lwrist 0.0227598
lhand -20.0157 -13.5308
lfingers 7.12502
lthumb 6.32469 16.3548
rfemur -67.7041 -0.333617 19.8647
rtibia 91.002
rfoot -20.0396 -8.90215
rtoes -37.1684
lfemur -35.2536 -8.09937 -21.5275
ltibia 22.5206
lfoot -9.77869 1.91057
ltoes -18.2663
530
root 8.61648 18.4566 -2.15255 -154.625 1.43443 179.352
lowerback -19.619 -2.84706 -8.81328
upperback 1.40371 -1.34781 -1.14891
thorax 12.8931 -1.10538 3.32976
lowerneck -1.02952 -2.32511 -2.57335
upperneck 19.1524 -2.65265 5.83018
head 6.06117 -0.544093 2.1912
rclavicle 5.1684e-015 -4.77083e-015
rhumerus -39.0077 -14.1451 -77.3572
rradius 36.8639
rwrist -6.09805
rhand -10.3623 -47.9801
rfingers 7.12502
rthumb 15.6347 -77.3683
lclavicle 5.1684e-015 -4.77083e-015
lhumerus -28.0305 2.28018 78.4921
lradius 30.602
lwrist -0.0741691
lhand -19.9396 -13.7541
lfingers 7.12502
lthumb 6.3981 16.1293
rfemur -68.7053 -0.20729 19.9627
rtibia 91.0724
rfoot -20.9119 -9.11613
rtoes -38.1686
lfemur -34.7545 -8.04572 -21.506
ltibia 22.0579
lfoot -9.78927 2.01161
ltoes -18.4583
531
root 8.61081 18.4678 -2.20086 -154.699 1.53723 179.52
lowerback -19.6518 -2.86396 -8.71105
upperback 1.4308 -1.41689 -1.0214
thorax 12.9517 -1.14347 3.39232
lowerneck -1.28368 -2.33178 -2.96962
upperneck 19.4554 -2.68038 6.15324
head 6.21108 -0.547615 2.36305
rclavicle -2.78299e-015 -4.29375e-014
rhumerus -38.9519 -14.4405 -77.0453
rradius 36.3535
rwrist -5.76971
rhand -10.1004 -47.8882
rfingers 7.12502
rthumb 15.887 -77.2565
lclavicle -2.78299e-015 -4.29375e-014
lhumerus -28.0102 2.33004 78.5627
lradius 30.6812
lwrist -0.0510593
lhand -19.9123 -13.6412
lfingers 7.12502
lthumb 6.42448 16.2413
rfemur -69.6868 -0.0369492 20.1461
rtibia 90.8678
rfoot -21.2481 -9.29547
rtoes -37.7899
lfemur -34.1614 -7.88545 -21.4189
ltibia 21.4718
lfoot -9.74757 2.07724
ltoes -19.2812
532
root 8.60472 18.48 -2.25154 -154.921 1.60045 179.726
lowerback -19.5678 -2.82958 -8.49978
upperback 1.52614 -1.45197 -0.934702
thorax 13.0121 -1.16014 3.35823
lowerneck -1.41211 -2.25934 -3.04169
upperneck 19.6045 -2.58642 6.25492
head 6.27797 -0.491781 2.41519
rclavicle 2.78299e-015 -2.38542e-015
rhumerus -38.9615 -14.7967 -76.7923
rradius 35.9496
rwrist -5.4209
rhand -10.1514 -47.9484
rfingers 7.12502
rthumb 15.8379 -77.3206
lclavicle 2.78299e-015 -2.38542e-015
lhumerus -27.8426 2.26102 78.5903
lradius 30.6765
lwrist 0.0970072
lhand -19.9098 -13.6717
lfingers 7.12502
lthumb 6.42694 16.2108
rfemur -70.5592 0.198903 20.3494
rtibia 90.6973
rfoot -21.4011 -9.33342
rtoes -36.1541
lfemur -33.3998 -7.7056 -21.3075
ltibia 20.8926
lfoot -9.64013 2.19141
ltoes -20.1486
533
root 8.59527 18.4922 -2.29825 -155.049 1.58886 179.814
lowerback -19.4845 -2.85093 -8.33826
upperback 1.60494 -1.54215 -0.873434
thorax 13.0621 -1.20154 3.30696
lowerneck -1.63613 -2.20742 -2.83271
upperneck 19.8002 -2.48454 5.97456
head 6.36925 -0.440984 2.2973
rclavicle 1.66979e-014 5.725e-014
rhumerus -39.0919 -14.9183 -76.6467
rradius 35.8469
rwrist -5.2263
rhand -10.0546 -48.1474
rfingers 7.12502
rthumb 15.9311 -77.5121
lclavicle 1.66979e-014 5.725e-014
lhumerus -27.7499 2.24058 78.5925
lradius 30.6976
lwrist 0.241342
lhand -19.8044 -13.85
lfingers 7.12502
lthumb 6.52864 16.0294
rfemur -71.4178 0.263363 20.484
rtibia 90.3829
rfoot -21.567 -9.60614
rtoes -35.6425
lfemur -32.8466 -7.60701 -21.3234
ltibia 20.4987
lfoot -9.54254 2.27044
ltoes -21.2417
534
root 8.58561 18.5031 -2.34094 -155.073 1.59073 179.774
lowerback -19.4537 -2.92582 -8.33915
upperback 1.61941 -1.65295 -0.827176
thorax 13.0767 -1.25695 3.32511
lowerneck -1.6622 -2.24058 -2.75554
upperneck 19.7906 -2.528 5.88128
head 6.37099 -0.466325 2.25098
rclavicle -1.78906e-014 -9.54166e-015
rhumerus -39.3787 -14.8134 -76.5671
rradius 35.9288
rwrist -5.16333
rhand -9.8103 -48.351
rfingers 7.12502
rthumb 16.1663 -77.6968
lclavicle -1.78906e-014 -9.54166e-015
lhumerus -27.7617 2.1352 78.6483
lradius 30.735
lwrist 0.37727
lhand -19.9216 -13.6625
lfingers 7.12502
lthumb 6.41552 16.2204
rfemur -72.3409 0.2202 20.4874
rtibia 89.924
rfoot -21.8705 -9.90232
rtoes -35.3967
lfemur -32.4624 -7.58182 -21.4633
ltibia 20.1662
lfoot -9.55579 2.27092
ltoes -22.26
